<svg width="120" height="96" viewBox="0 0 120 96" fill="none" xmlns="http://www.w3.org/2000/svg">
<g filter="url(#filter0_d_2_11)">
<path d="M77.8653 52.5089L39.1023 9.51043L38.8802 3.17115L45.1542 4.51231L80.1507 50.6583L77.8653 52.5089Z" fill="black"/>
</g>
<path d="M77.8653 52.5089L39.1023 9.51043L38.8802 3.17115L45.1542 4.51231L80.1507 50.6583L77.8653 52.5089Z" fill="url(#paint0_linear_2_11)"/>
<path d="M77.6453 49.6179L77.2839 49.1716L77.6033 47.1408L77.934 47.5492L77.6453 49.6179Z" fill="white"/>
<path d="M76.4172 48.1013L76.0559 47.655L76.3752 45.6242L76.7059 46.0326L76.4172 48.1013Z" fill="white"/>
<path d="M75.0527 46.4162L74.6913 45.9699L75.0107 43.9391L75.3414 44.3474L75.0527 46.4162Z" fill="white"/>
<path d="M73.4152 44.394L73.0538 43.9478L73.3732 41.9169L73.7039 42.3253L73.4152 44.394Z" fill="white"/>
<path d="M71.7776 42.3719L71.4163 41.9256L71.7356 39.8948L72.0663 40.3032L71.7776 42.3719Z" fill="white"/>
<path d="M70.1401 40.3498L69.7788 39.9035L70.0981 37.8727L70.4288 38.281L70.1401 40.3498Z" fill="white"/>
<path d="M43.6255 9.01525L43.3971 8.44619L43.9062 8.7879L78.7119 50.7073L78.4311 50.9347L43.6255 9.01525Z" fill="#D2D2D2"/>
<path fill-rule="evenodd" clip-rule="evenodd" d="M77.8653 52.5089L39.1023 9.51043L38.8802 3.17115L45.1542 4.51231L80.1507 50.6583L77.8653 52.5089Z" stroke="#DADADA" stroke-width="2"/>
<path fill-rule="evenodd" clip-rule="evenodd" d="M75.9866 54.1523C76.7484 52.7101 77.6519 51.5657 78.6972 50.7192C79.7425 49.8727 80.9853 49.2791 82.4256 48.9382L82.733 50.6757L80.9032 50.5452L80.9307 51.7425L84.6877 56.3821L86.0985 56.9608L86.3388 60.1558L83.1296 59.3649L82.9308 57.8048L79.141 53.5844L78.1961 53.2725L77.6087 55.1033L75.9866 54.1523Z" fill="#646464" stroke="#979797"/>
<path d="M82.8555 57.7655L82.4063 57.2108L82.8788 54.0316L83.342 54.6036L82.8555 57.7655ZM82.0916 56.9038L81.635 56.3399L82.0451 53.0353L82.5161 53.6169L82.0916 56.9038ZM81.2553 55.9073L80.7975 55.342L81.2088 52.0388L81.6808 52.6216L81.2553 55.9073Z" fill="#C4C4C4"/>
<path fill-rule="evenodd" clip-rule="evenodd" d="M75.9866 54.1523C76.7484 52.7101 77.6519 51.5657 78.6972 50.7192C79.7425 49.8727 80.9853 49.2791 82.4256 48.9382L82.733 50.6757L80.9032 50.5452L80.9307 51.7425L84.6877 56.3821L86.0985 56.9608L86.3388 60.1558L83.1296 59.3649L82.9308 57.8048L79.141 53.5844L78.1961 53.2725L77.6087 55.1033L75.9866 54.1523Z" stroke="#979797"/>
<g filter="url(#filter1_d_2_11)">
<path d="M44.8412 52.5089L83.6043 9.51043L83.8264 3.17115L77.5524 4.51231L42.5559 50.6583L44.8412 52.5089Z" fill="black"/>
</g>
<path d="M44.8412 52.5089L83.6043 9.51043L83.8264 3.17115L77.5524 4.51231L42.5559 50.6583L44.8412 52.5089Z" fill="url(#paint1_linear_2_11)"/>
<path d="M45.0612 49.6179L45.4225 49.1716L45.1032 47.1408L44.7725 47.5492L45.0612 49.6179Z" fill="white"/>
<path d="M46.2893 48.1013L46.6507 47.655L46.3313 45.6242L46.0006 46.0326L46.2893 48.1013Z" fill="white"/>
<path d="M47.6539 46.4162L48.0152 45.9699L47.6959 43.9391L47.3652 44.3474L47.6539 46.4162Z" fill="white"/>
<path d="M49.2914 44.394L49.6528 43.9478L49.3334 41.9169L49.0027 42.3253L49.2914 44.394Z" fill="white"/>
<path d="M50.9288 42.3719L51.2902 41.9256L50.9708 39.8948L50.6401 40.3032L50.9288 42.3719Z" fill="white"/>
<path d="M52.5663 40.3498L52.9277 39.9035L52.6083 37.8727L52.2777 38.281L52.5663 40.3498Z" fill="white"/>
<path d="M79.0811 9.01525L79.3095 8.44619L78.8003 8.7879L43.9947 50.7073L44.2754 50.9347L79.0811 9.01525Z" fill="#D2D2D2"/>
<path fill-rule="evenodd" clip-rule="evenodd" d="M44.8412 52.5089L83.6043 9.51043L83.8264 3.17115L77.5524 4.51231L42.5559 50.6583L44.8412 52.5089Z" stroke="#DADADA" stroke-width="2"/>
<path fill-rule="evenodd" clip-rule="evenodd" d="M46.7199 54.1523C45.9581 52.7101 45.0546 51.5657 44.0093 50.7192C42.964 49.8727 41.7212 49.2791 40.2809 48.9382L39.9735 50.6757L41.8033 50.5452L41.7758 51.7425L38.0187 56.3821L36.608 56.9608L36.3677 60.1558L39.5768 59.3649L39.7757 57.8048L43.5655 53.5844L44.5104 53.2725L45.0978 55.1033L46.7199 54.1523Z" fill="#646464" stroke="#979797"/>
<path d="M39.8509 57.7655L40.3002 57.2108L39.8277 54.0316L39.3644 54.6036L39.8509 57.7655ZM40.6148 56.9038L41.0715 56.3399L40.6613 53.0353L40.1904 53.6169L40.6148 56.9038ZM41.4512 55.9073L41.9089 55.342L41.4977 52.0388L41.0257 52.6216L41.4512 55.9073Z" fill="#C4C4C4"/>
<path fill-rule="evenodd" clip-rule="evenodd" d="M46.7199 54.1523C45.9581 52.7101 45.0546 51.5657 44.0093 50.7192C42.964 49.8727 41.7212 49.2791 40.2809 48.9382L39.9735 50.6757L41.8033 50.5452L41.7758 51.7425L38.0187 56.3821L36.608 56.9608L36.3677 60.1558L39.5768 59.3649L39.7757 57.8048L43.5655 53.5844L44.5104 53.2725L45.0978 55.1033L46.7199 54.1523Z" stroke="#979797"/>
<path d="M61.6467 55.9423C76.0736 55.9423 87.7688 44.2471 87.7688 29.8202C87.7688 15.3934 76.0736 3.69816 61.6467 3.69816C47.2199 3.69816 35.5247 15.3934 35.5247 29.8202C35.5247 44.2471 47.2199 55.9423 61.6467 55.9423Z" fill="url(#paint2_linear_2_11)"/>
<path fill-rule="evenodd" clip-rule="evenodd" d="M87.7688 29.8202C87.7688 15.3934 76.0736 3.69816 61.6467 3.69816C47.2199 3.69816 35.5247 15.3934 35.5247 29.8202C35.5247 44.2471 47.2199 55.9423 61.6467 55.9423C76.0736 55.9423 87.7688 44.2471 87.7688 29.8202ZM38.5722 29.8202C38.5722 17.0765 48.903 6.74573 61.6467 6.74573C74.3904 6.74573 84.7212 17.0765 84.7212 29.8202C84.7212 42.5639 74.3904 52.8947 61.6467 52.8947C48.903 52.8947 38.5722 42.5639 38.5722 29.8202Z" fill="#CED0D0"/>
<path d="M61.7055 9.48128C72.9708 9.48128 82.1031 18.6136 82.1031 29.8789C82.1031 41.1443 72.9708 50.2766 61.7055 50.2766C50.4401 50.2766 41.3078 41.1443 41.3078 29.8789C41.3078 18.6136 50.4401 9.48128 61.7055 9.48128ZM61.7055 13.0526C52.4126 13.0526 44.8792 20.586 44.8792 29.8789C44.8792 39.1718 52.4126 46.7052 61.7055 46.7052C70.9984 46.7052 78.5318 39.1718 78.5318 29.8789C78.5318 20.586 70.9984 13.0526 61.7055 13.0526Z" fill="white" stroke="#E2E2E2"/>
<path fill-rule="evenodd" clip-rule="evenodd" d="M62.5175 11.0994C62.5175 11.5803 62.1276 11.9702 61.6467 11.9702C61.1658 11.9702 60.776 11.5803 60.776 11.0994C60.776 10.6185 61.1658 10.2287 61.6467 10.2287C62.1276 10.2287 62.5175 10.6185 62.5175 11.0994ZM66.5385 23.9012C66.5385 26.3057 64.5893 28.2549 62.1848 28.2549C59.7804 28.2549 57.8312 26.3057 57.8312 23.9012C57.8312 21.4967 59.7804 19.5475 62.1848 19.5475C64.5893 19.5475 66.5385 21.4967 66.5385 23.9012ZM60.1229 33.9024C60.1229 36.3069 58.1737 38.2561 55.7692 38.2561C53.3648 38.2561 51.4156 36.3069 51.4156 33.9024C51.4156 31.498 53.3648 29.5487 55.7692 29.5487C58.1737 29.5487 60.1229 31.498 60.1229 33.9024ZM69.1336 38.2561C71.5381 38.2561 73.4873 36.3069 73.4873 33.9024C73.4873 31.498 71.5381 29.5487 69.1336 29.5487C66.7291 29.5487 64.7799 31.498 64.7799 33.9024C64.7799 36.3069 66.7291 38.2561 69.1336 38.2561ZM71.0072 14.3647C71.4881 14.3647 71.8779 13.9748 71.8779 13.4939C71.8779 13.013 71.4881 12.6232 71.0072 12.6232C70.5263 12.6232 70.1364 13.013 70.1364 13.4939C70.1364 13.9748 70.5263 14.3647 71.0072 14.3647ZM78.8438 20.4598C78.8438 20.9407 78.4539 21.3306 77.973 21.3306C77.4921 21.3306 77.1023 20.9407 77.1023 20.4598C77.1023 19.9789 77.4921 19.5891 77.973 19.5891C78.4539 19.5891 78.8438 19.9789 78.8438 20.4598ZM80.3676 30.691C80.8484 30.691 81.2383 30.3011 81.2383 29.8202C81.2383 29.3393 80.8484 28.9495 80.3676 28.9495C79.8867 28.9495 79.4968 29.3393 79.4968 29.8202C79.4968 30.3011 79.8867 30.691 80.3676 30.691ZM78.8438 39.1806C78.8438 39.6615 78.4539 40.0514 77.973 40.0514C77.4921 40.0514 77.1023 39.6615 77.1023 39.1806C77.1023 38.6998 77.4921 38.3099 77.973 38.3099C78.4539 38.3099 78.8438 38.6998 78.8438 39.1806ZM71.0072 46.7996C71.4881 46.7996 71.8779 46.4098 71.8779 45.9289C71.8779 45.448 71.4881 45.0581 71.0072 45.0581C70.5263 45.0581 70.1364 45.448 70.1364 45.9289C70.1364 46.4098 70.5263 46.7996 71.0072 46.7996ZM53.157 45.9289C53.157 46.4098 52.7672 46.7996 52.2863 46.7996C51.8054 46.7996 51.4156 46.4098 51.4156 45.9289C51.4156 45.448 51.8054 45.0581 52.2863 45.0581C52.7672 45.0581 53.157 45.448 53.157 45.9289ZM45.3204 40.0514C45.8013 40.0514 46.1912 39.6615 46.1912 39.1806C46.1912 38.6998 45.8013 38.3099 45.3204 38.3099C44.8395 38.3099 44.4497 38.6998 44.4497 39.1806C44.4497 39.6615 44.8395 40.0514 45.3204 40.0514ZM43.7966 29.8202C43.7966 30.3011 43.4068 30.691 42.9259 30.691C42.445 30.691 42.0552 30.3011 42.0552 29.8202C42.0552 29.3393 42.445 28.9495 42.9259 28.9495C43.4068 28.9495 43.7966 29.3393 43.7966 29.8202ZM45.3204 21.3306C45.8013 21.3306 46.1912 20.9407 46.1912 20.4598C46.1912 19.9789 45.8013 19.5891 45.3204 19.5891C44.8395 19.5891 44.4497 19.9789 44.4497 20.4598C44.4497 20.9407 44.8395 21.3306 45.3204 21.3306ZM53.157 13.4939C53.157 13.9748 52.7672 14.3647 52.2863 14.3647C51.8054 14.3647 51.4156 13.9748 51.4156 13.4939C51.4156 13.013 51.8054 12.6232 52.2863 12.6232C52.7672 12.6232 53.157 13.013 53.157 13.4939Z" fill="url(#paint3_radial_2_11)"/>
<path d="M61.6467 49.4118C62.1276 49.4118 62.5175 49.022 62.5175 48.5411C62.5175 48.0602 62.1276 47.6703 61.6467 47.6703C61.1658 47.6703 60.776 48.0602 60.776 48.5411C60.776 49.022 61.1658 49.4118 61.6467 49.4118Z" fill="url(#paint4_radial_2_11)"/>
<path d="M19.4405 25.3002C15.1749 25.3002 13.0421 26.7091 13.0421 29.5267C13.0421 30.779 13.5704 31.7378 14.627 32.4031C15.6836 33.0684 18.1491 34.0272 22.0234 35.2795C25.9368 36.5318 28.6762 37.9602 30.2416 39.5647C31.8069 41.13 32.5896 43.5564 32.5896 46.8436C32.5896 51.031 31.3178 54.2009 28.774 56.3532C26.2303 58.5056 22.9039 59.5818 18.7948 59.5818C15.7423 59.5818 12.005 59.1122 7.58286 58.173L5.46961 57.7621L6.29143 51.481C11.5354 52.1854 15.5467 52.5376 18.3252 52.5376C22.4734 52.5376 24.5475 50.8157 24.5475 47.3719C24.5475 46.1196 24.0584 45.1413 23.08 44.4369C22.1408 43.7325 20.2428 42.9693 17.386 42.1475C12.8464 40.8561 9.6374 39.3299 7.75896 37.5688C5.91965 35.7686 5 33.2836 5 30.1138C5 26.1221 6.21316 23.1479 8.63948 21.1912C11.0658 19.2344 14.3922 18.2561 18.6187 18.2561C21.5146 18.2561 25.1932 18.6474 29.6545 19.4301L31.7678 19.841L31.1221 26.2395C25.6042 25.6133 21.7103 25.3002 19.4405 25.3002Z" fill="#0092E5"/>
<path d="M118 58.8774H95.2826V18.9605H103.383V51.7158H118V58.8774Z" fill="#0092E5"/>
<path d="M2.64 80.4C2.64 81.1893 2.816 81.8827 3.168 82.48C3.53067 83.0773 4 83.5413 4.576 83.872C5.16267 84.192 5.79733 84.352 6.48 84.352C7.01333 84.352 7.49333 84.2827 7.92 84.144C8.34667 84.0053 8.73067 83.8187 9.072 83.584C9.424 83.3387 9.728 83.0667 9.984 82.768V85.008C9.51467 85.392 9.008 85.6853 8.464 85.888C7.92 86.0907 7.23733 86.192 6.416 86.192C5.59467 86.192 4.82667 86.0533 4.112 85.776C3.408 85.4987 2.79467 85.0987 2.272 84.576C1.74933 84.0533 1.33867 83.44 1.04 82.736C0.752 82.0213 0.608 81.2427 0.608 80.4C0.608 79.5573 0.752 78.784 1.04 78.08C1.33867 77.3653 1.74933 76.7467 2.272 76.224C2.79467 75.7013 3.408 75.3013 4.112 75.024C4.82667 74.7467 5.59467 74.608 6.416 74.608C7.23733 74.608 7.92 74.7093 8.464 74.912C9.008 75.1147 9.51467 75.408 9.984 75.792V78.032C9.728 77.7333 9.424 77.4667 9.072 77.232C8.73067 76.9867 8.34667 76.7947 7.92 76.656C7.49333 76.5173 7.01333 76.448 6.48 76.448C5.79733 76.448 5.16267 76.6133 4.576 76.944C4 77.264 3.53067 77.7227 3.168 78.32C2.816 78.9067 2.64 79.6 2.64 80.4ZM14.6305 80.4C14.6305 81.168 14.7905 81.856 15.1105 82.464C15.4412 83.0613 15.8945 83.5307 16.4705 83.872C17.0465 84.2133 17.7025 84.384 18.4385 84.384C19.1852 84.384 19.8412 84.2133 20.4065 83.872C20.9825 83.5307 21.4305 83.0613 21.7505 82.464C22.0812 81.856 22.2465 81.168 22.2465 80.4C22.2465 79.632 22.0865 78.9493 21.7665 78.352C21.4465 77.744 20.9985 77.2693 20.4225 76.928C19.8572 76.5867 19.1958 76.416 18.4385 76.416C17.7025 76.416 17.0465 76.5867 16.4705 76.928C15.8945 77.2693 15.4412 77.744 15.1105 78.352C14.7905 78.9493 14.6305 79.632 14.6305 80.4ZM12.6305 80.4C12.6305 79.5573 12.7745 78.784 13.0625 78.08C13.3505 77.376 13.7558 76.768 14.2785 76.256C14.8118 75.7333 15.4305 75.328 16.1345 75.04C16.8492 74.752 17.6172 74.608 18.4385 74.608C19.2812 74.608 20.0545 74.752 20.7585 75.04C21.4625 75.328 22.0758 75.7333 22.5985 76.256C23.1318 76.768 23.5425 77.376 23.8305 78.08C24.1185 78.784 24.2625 79.5573 24.2625 80.4C24.2625 81.232 24.1185 82.0053 23.8305 82.72C23.5425 83.4347 23.1372 84.0533 22.6145 84.576C22.0918 85.0987 21.4732 85.5093 20.7585 85.808C20.0545 86.096 19.2812 86.24 18.4385 86.24C17.6065 86.24 16.8332 86.096 16.1185 85.808C15.4038 85.5093 14.7852 85.0987 14.2625 84.576C13.7505 84.0533 13.3505 83.4347 13.0625 82.72C12.7745 82.0053 12.6305 81.232 12.6305 80.4ZM29.1386 79.184L28.3706 86H26.4186L27.9546 74.24L32.5466 81.84L37.1546 74.24L38.6906 86H36.7386L35.9546 79.184L32.5466 84.96L29.1386 79.184ZM41.4874 74.8H43.3754V86H41.4874V74.8ZM42.6074 76.464V74.8H44.8634C45.674 74.8 46.378 74.944 46.9754 75.232C47.5834 75.5093 48.0527 75.9093 48.3834 76.432C48.714 76.944 48.8794 77.5573 48.8794 78.272C48.8794 78.9867 48.714 79.6053 48.3834 80.128C48.0527 80.6507 47.5834 81.056 46.9754 81.344C46.378 81.6213 45.674 81.76 44.8634 81.76H42.6074V80.096H44.8634C45.514 80.096 46.0367 79.9413 46.4314 79.632C46.826 79.3227 47.0234 78.8693 47.0234 78.272C47.0234 77.6747 46.826 77.2267 46.4314 76.928C46.0367 76.6187 45.514 76.464 44.8634 76.464H42.6074ZM53.0574 80.4C53.0574 81.168 53.2174 81.856 53.5374 82.464C53.868 83.0613 54.3214 83.5307 54.8974 83.872C55.4734 84.2133 56.1294 84.384 56.8654 84.384C57.612 84.384 58.268 84.2133 58.8334 83.872C59.4094 83.5307 59.8574 83.0613 60.1774 82.464C60.508 81.856 60.6734 81.168 60.6734 80.4C60.6734 79.632 60.5134 78.9493 60.1934 78.352C59.8734 77.744 59.4254 77.2693 58.8494 76.928C58.284 76.5867 57.6227 76.416 56.8654 76.416C56.1294 76.416 55.4734 76.5867 54.8974 76.928C54.3214 77.2693 53.868 77.744 53.5374 78.352C53.2174 78.9493 53.0574 79.632 53.0574 80.4ZM51.0574 80.4C51.0574 79.5573 51.2014 78.784 51.4894 78.08C51.7774 77.376 52.1827 76.768 52.7054 76.256C53.2387 75.7333 53.8574 75.328 54.5614 75.04C55.276 74.752 56.044 74.608 56.8654 74.608C57.708 74.608 58.4814 74.752 59.1854 75.04C59.8894 75.328 60.5027 75.7333 61.0254 76.256C61.5587 76.768 61.9694 77.376 62.2574 78.08C62.5454 78.784 62.6894 79.5573 62.6894 80.4C62.6894 81.232 62.5454 82.0053 62.2574 82.72C61.9694 83.4347 61.564 84.0533 61.0414 84.576C60.5187 85.0987 59.9 85.5093 59.1854 85.808C58.4814 86.096 57.708 86.24 56.8654 86.24C56.0334 86.24 55.26 86.096 54.5454 85.808C53.8307 85.5093 53.212 85.0987 52.6894 84.576C52.1774 84.0533 51.7774 83.4347 51.4894 82.72C51.2014 82.0053 51.0574 81.232 51.0574 80.4ZM73.6615 74.8H75.5175V86.56L67.3415 78.48V86H65.4855V74.24L73.6615 82.32V74.8ZM80.1291 86V84.336H85.7771V86H80.1291ZM80.1291 76.464V74.8H85.7771V76.464H80.1291ZM80.1291 80.816V79.184H85.4571V80.816H80.1291ZM78.9611 74.8H80.8171V86H78.9611V74.8ZM97.2378 74.8H99.0938V86.56L90.9178 78.48V86H89.0618V74.24L97.2378 82.32V74.8ZM101.417 76.544V74.8H109.225V76.544H106.265V86H104.361V76.544H101.417ZM112.296 82.4C112.541 82.8267 112.803 83.2053 113.08 83.536C113.368 83.856 113.683 84.1067 114.024 84.288C114.365 84.4587 114.749 84.544 115.176 84.544C115.688 84.544 116.104 84.4053 116.424 84.128C116.744 83.8507 116.904 83.4933 116.904 83.056C116.904 82.64 116.803 82.3093 116.6 82.064C116.397 81.808 116.115 81.5947 115.752 81.424C115.4 81.2427 114.989 81.0667 114.52 80.896C114.243 80.8 113.933 80.672 113.592 80.512C113.251 80.3413 112.925 80.1333 112.616 79.888C112.307 79.632 112.051 79.3227 111.848 78.96C111.645 78.5867 111.544 78.1387 111.544 77.616C111.544 77.0187 111.699 76.496 112.008 76.048C112.317 75.5893 112.733 75.2373 113.256 74.992C113.789 74.736 114.392 74.608 115.064 74.608C115.725 74.608 116.301 74.7253 116.792 74.96C117.283 75.1947 117.693 75.4933 118.024 75.856C118.365 76.2187 118.632 76.5973 118.824 76.992L117.288 77.856C117.149 77.5787 116.973 77.3227 116.76 77.088C116.547 76.8427 116.296 76.6507 116.008 76.512C115.731 76.3627 115.405 76.288 115.032 76.288C114.509 76.288 114.125 76.4107 113.88 76.656C113.635 76.8907 113.512 77.168 113.512 77.488C113.512 77.776 113.597 78.0373 113.768 78.272C113.949 78.496 114.227 78.7093 114.6 78.912C114.973 79.1147 115.459 79.3227 116.056 79.536C116.387 79.6533 116.717 79.8027 117.048 79.984C117.389 80.1653 117.699 80.3947 117.976 80.672C118.253 80.9387 118.472 81.2533 118.632 81.616C118.803 81.9787 118.888 82.4053 118.888 82.896C118.888 83.4187 118.787 83.888 118.584 84.304C118.381 84.72 118.104 85.072 117.752 85.36C117.4 85.6373 117 85.8507 116.552 86C116.115 86.16 115.656 86.24 115.176 86.24C114.515 86.24 113.901 86.112 113.336 85.856C112.781 85.5893 112.296 85.2373 111.88 84.8C111.464 84.3627 111.133 83.888 110.888 83.376L112.296 82.4Z" fill="white"/>
<defs>
<filter id="filter0_d_2_11" x="36.8801" y="2.17115" width="45.2705" height="53.3377" filterUnits="userSpaceOnUse" color-interpolation-filters="sRGB">
<feFlood flood-opacity="0" result="BackgroundImageFix"/>
<feColorMatrix in="SourceAlpha" type="matrix" values="0 0 0 0 0 0 0 0 0 0 0 0 0 0 0 0 0 0 127 0" result="hardAlpha"/>
<feOffset dy="1"/>
<feGaussianBlur stdDeviation="1"/>
<feColorMatrix type="matrix" values="0 0 0 0 0 0 0 0 0 0 0 0 0 0 0 0 0 0 0.5 0"/>
<feBlend mode="normal" in2="BackgroundImageFix" result="effect1_dropShadow_2_11"/>
<feBlend mode="normal" in="SourceGraphic" in2="effect1_dropShadow_2_11" result="shape"/>
</filter>
<filter id="filter1_d_2_11" x="40.5559" y="2.17115" width="45.2705" height="53.3377" filterUnits="userSpaceOnUse" color-interpolation-filters="sRGB">
<feFlood flood-opacity="0" result="BackgroundImageFix"/>
<feColorMatrix in="SourceAlpha" type="matrix" values="0 0 0 0 0 0 0 0 0 0 0 0 0 0 0 0 0 0 127 0" result="hardAlpha"/>
<feOffset dy="1"/>
<feGaussianBlur stdDeviation="1"/>
<feColorMatrix type="matrix" values="0 0 0 0 0 0 0 0 0 0 0 0 0 0 0 0 0 0 0.5 0"/>
<feBlend mode="normal" in2="BackgroundImageFix" result="effect1_dropShadow_2_11"/>
<feBlend mode="normal" in="SourceGraphic" in2="effect1_dropShadow_2_11" result="shape"/>
</filter>
<linearGradient id="paint0_linear_2_11" x1="-1078.35" y1="-1933.33" x2="-985.692" y2="-4309.49" gradientUnits="userSpaceOnUse">
<stop stop-color="#E0E8EA"/>
<stop offset="0.206594" stop-color="#808080"/>
<stop offset="0.675672" stop-color="#191918"/>
<stop offset="1" stop-color="#C2C2C2"/>
</linearGradient>
<linearGradient id="paint1_linear_2_11" x1="1201.05" y1="-1933.33" x2="1108.4" y2="-4309.49" gradientUnits="userSpaceOnUse">
<stop stop-color="#E0E8EA"/>
<stop offset="0.206594" stop-color="#808080"/>
<stop offset="0.675672" stop-color="#191918"/>
<stop offset="1" stop-color="#C2C2C2"/>
</linearGradient>
<linearGradient id="paint2_linear_2_11" x1="468.496" y1="-264.397" x2="5147.03" y2="5503.55" gradientUnits="userSpaceOnUse">
<stop stop-color="#EDEDED"/>
<stop offset="0.474814" stop-color="#757575"/>
<stop offset="1" stop-color="#E4E4E4"/>
</linearGradient>
<radialGradient id="paint3_radial_2_11" cx="0" cy="0" r="1" gradientUnits="userSpaceOnUse" gradientTransform="translate(138.489 94.3517) scale(86.41 80.6494)">
<stop stop-color="#626262"/>
<stop offset="1" stop-color="#2C2B2B"/>
</radialGradient>
<radialGradient id="paint4_radial_2_11" cx="0" cy="0" r="1" gradientUnits="userSpaceOnUse" gradientTransform="translate(147.85 135.408) scale(86.41)">
<stop stop-color="#626262"/>
<stop offset="1" stop-color="#2C2B2B"/>
</radialGradient>
</defs>
</svg>
